# MagicaVoxel @ Ephtracy

# group
o 

# material
mtllib ground.mtl
usemtl palette

# normals
vn -1 0 0
vn 1 0 0
vn 0 0 1
vn 0 0 -1
vn 0 -1 0
vn 0 1 0

# texcoords
vt 0.0175781 0.5
vt 0.306641 0.5
vt 0.958984 0.5
vt 0.982422 0.5

# verts
v -5 0 5
v -5 0 -5
v -5 0.9 4.8
v -5 0.9 4.5
v -5 0.9 0.9
v -5 0.9 0.4
v -5 0.9 0.3
v -5 0.9 -0.3
v -5 0.9 -0.4
v -5 0.9 -1
v -5 0.9 -2.4
v -5 0.9 -2.8
v -5 0.9 -4.2
v -5 0.9 -4.7
v -5 1 5
v -5 1 4.8
v -5 1 4.5
v -5 1 0.9
v -5 1 0.4
v -5 1 0.3
v -5 1 -0.3
v -5 1 -0.4
v -5 1 -1
v -5 1 -2.4
v -5 1 -2.8
v -5 1 -4.2
v -5 1 -4.7
v -5 1 -5
v 5 0 5
v 5 0 -5
v 5 0.9 2.9
v 5 0.9 2.6
v 5 0.9 0.9
v 5 0.9 0.4
v 5 0.9 0.3
v 5 0.9 -0.3
v 5 0.9 -0.4
v 5 0.9 -1
v 5 0.9 -2.6
v 5 0.9 -2.8
v 5 0.9 -4.2
v 5 0.9 -4.7
v 5 1 5
v 5 1 2.9
v 5 1 2.6
v 5 1 0.9
v 5 1 0.4
v 5 1 0.3
v 5 1 -0.3
v 5 1 -0.4
v 5 1 -1
v 5 1 -2.6
v 5 1 -2.8
v 5 1 -4.2
v 5 1 -4.7
v 5 1 -5
v -5 0 5
v -5 1 5
v 5 0 5
v 5 1 5
v -5 0 -5
v -5 1 -5
v -1.3 0.2 -5
v -1.3 0.4 -5
v -1.1 0.2 -5
v -1.1 0.4 -5
v 5 0 -5
v 5 1 -5
v -5 0 5
v 5 0 5
v -0.9 0 -0.4
v -0.7 0 -0.4
v -0.9 0 -1.8
v -0.7 0 -1.8
v -5 0 -5
v 5 0 -5
v -5 1 5
v 5 1 5
v -5 1 4.8
v 4.6 1 4.8
v -5 1 4.5
v 4.6 1 4.5
v -4.4 1 3.1
v -1.6 1 3.1
v -0.9 1 3
v 2.5 1 3
v 3.3 1 2.9
v 5 1 2.9
v -4.4 1 2.7
v -1.6 1 2.7
v -0.9 1 2.7
v 2.5 1 2.7
v 3.3 1 2.6
v 5 1 2.6
v -5 1 0.9
v 5 1 0.9
v -5 1 0.4
v 5 1 0.4
v -5 1 0.3
v 5 1 0.3
v -5 1 -0.3
v 5 1 -0.3
v -5 1 -0.4
v 5 1 -0.4
v -5 1 -1
v 5 1 -1
v -5 1 -2.4
v -3.3 1 -2.4
v -2.9 1 -2.4
v -0.0999999 1 -2.4
v 0.7 1 -2.5
v 3.6 1 -2.5
v 4.2 1 -2.6
v 5 1 -2.6
v -2.9 1 -2.7
v -0.0999999 1 -2.7
v -5 1 -2.8
v -3.3 1 -2.8
v 0.7 1 -2.8
v 3.6 1 -2.8
v 4.2 1 -2.8
v 5 1 -2.8
v -5 1 -4.2
v 5 1 -4.2
v -5 1 -4.7
v 5 1 -4.7
v -5 1 -5
v 5 1 -5

# faces
f 3/4/1 2/4/1 1/4/1
f 4/4/1 2/4/1 3/4/1
f 5/4/1 2/4/1 4/4/1
f 6/4/1 2/4/1 5/4/1
f 7/4/1 2/4/1 6/4/1
f 8/4/1 2/4/1 7/4/1
f 9/4/1 2/4/1 8/4/1
f 10/4/1 2/4/1 9/4/1
f 11/4/1 2/4/1 10/4/1
f 12/4/1 2/4/1 11/4/1
f 13/4/1 2/4/1 12/4/1
f 14/4/1 2/4/1 13/4/1
f 15/4/1 3/4/1 1/4/1
f 16/3/1 4/3/1 3/3/1
f 16/4/1 3/4/1 15/4/1
f 17/4/1 5/4/1 4/4/1
f 17/3/1 4/3/1 16/3/1
f 18/3/1 6/3/1 5/3/1
f 18/4/1 5/4/1 17/4/1
f 19/4/1 7/4/1 6/4/1
f 19/3/1 6/3/1 18/3/1
f 20/1/1 8/1/1 7/1/1
f 20/4/1 7/4/1 19/4/1
f 21/4/1 9/4/1 8/4/1
f 21/1/1 8/1/1 20/1/1
f 22/3/1 10/3/1 9/3/1
f 22/4/1 9/4/1 21/4/1
f 23/4/1 11/4/1 10/4/1
f 23/3/1 10/3/1 22/3/1
f 24/3/1 12/3/1 11/3/1
f 24/4/1 11/4/1 23/4/1
f 25/4/1 13/4/1 12/4/1
f 25/3/1 12/3/1 24/3/1
f 26/3/1 14/3/1 13/3/1
f 26/4/1 13/4/1 25/4/1
f 27/4/1 2/4/1 14/4/1
f 27/3/1 14/3/1 26/3/1
f 28/4/1 2/4/1 27/4/1
f 29/4/2 30/4/2 31/4/2
f 31/4/2 30/4/2 32/4/2
f 32/4/2 30/4/2 33/4/2
f 33/4/2 30/4/2 34/4/2
f 34/4/2 30/4/2 35/4/2
f 35/4/2 30/4/2 36/4/2
f 36/4/2 30/4/2 37/4/2
f 37/4/2 30/4/2 38/4/2
f 38/4/2 30/4/2 39/4/2
f 39/4/2 30/4/2 40/4/2
f 40/4/2 30/4/2 41/4/2
f 41/4/2 30/4/2 42/4/2
f 29/4/2 31/4/2 43/4/2
f 31/3/2 32/3/2 44/3/2
f 43/4/2 31/4/2 44/4/2
f 32/4/2 33/4/2 45/4/2
f 44/3/2 32/3/2 45/3/2
f 33/3/2 34/3/2 46/3/2
f 45/4/2 33/4/2 46/4/2
f 34/4/2 35/4/2 47/4/2
f 46/3/2 34/3/2 47/3/2
f 35/1/2 36/1/2 48/1/2
f 47/4/2 35/4/2 48/4/2
f 36/4/2 37/4/2 49/4/2
f 48/1/2 36/1/2 49/1/2
f 37/3/2 38/3/2 50/3/2
f 49/4/2 37/4/2 50/4/2
f 38/4/2 39/4/2 51/4/2
f 50/3/2 38/3/2 51/3/2
f 39/3/2 40/3/2 52/3/2
f 51/4/2 39/4/2 52/4/2
f 40/4/2 41/4/2 53/4/2
f 52/3/2 40/3/2 53/3/2
f 41/3/2 42/3/2 54/3/2
f 53/4/2 41/4/2 54/4/2
f 42/4/2 30/4/2 55/4/2
f 54/3/2 42/3/2 55/3/2
f 55/4/2 30/4/2 56/4/2
f 59/4/3 58/4/3 57/4/3
f 60/4/3 58/4/3 59/4/3
f 61/4/4 62/4/4 63/4/4
f 63/4/4 62/4/4 64/4/4
f 61/4/4 63/4/4 65/4/4
f 63/2/4 64/2/4 65/2/4
f 64/4/4 62/4/4 66/4/4
f 65/2/4 64/2/4 66/2/4
f 61/4/4 65/4/4 67/4/4
f 65/4/4 66/4/4 67/4/4
f 66/4/4 62/4/4 68/4/4
f 67/4/4 66/4/4 68/4/4
f 71/4/5 70/4/5 69/4/5
f 72/4/5 70/4/5 71/4/5
f 73/4/5 71/4/5 69/4/5
f 73/2/5 72/2/5 71/2/5
f 74/4/5 70/4/5 72/4/5
f 74/2/5 72/2/5 73/2/5
f 75/4/5 73/4/5 69/4/5
f 75/4/5 74/4/5 73/4/5
f 76/4/5 70/4/5 74/4/5
f 76/4/5 74/4/5 75/4/5
f 77/4/6 78/4/6 79/4/6
f 79/4/6 78/4/6 80/4/6
f 79/3/6 80/3/6 81/3/6
f 80/4/6 78/4/6 82/4/6
f 81/3/6 80/3/6 82/3/6
f 81/4/6 82/4/6 83/4/6
f 83/4/6 82/4/6 84/4/6
f 84/4/6 82/4/6 85/4/6
f 85/4/6 82/4/6 86/4/6
f 86/4/6 82/4/6 87/4/6
f 82/4/6 78/4/6 88/4/6
f 87/4/6 82/4/6 88/4/6
f 81/4/6 83/4/6 89/4/6
f 83/3/6 84/3/6 89/3/6
f 84/4/6 85/4/6 90/4/6
f 89/3/6 84/3/6 90/3/6
f 85/3/6 86/3/6 91/3/6
f 90/4/6 85/4/6 91/4/6
f 86/4/6 87/4/6 92/4/6
f 91/3/6 86/3/6 92/3/6
f 90/4/6 91/4/6 93/4/6
f 92/4/6 87/4/6 93/4/6
f 91/4/6 92/4/6 93/4/6
f 89/4/6 90/4/6 93/4/6
f 87/3/6 88/3/6 93/3/6
f 93/3/6 88/3/6 94/3/6
f 81/4/6 89/4/6 95/4/6
f 89/4/6 93/4/6 95/4/6
f 93/4/6 94/4/6 95/4/6
f 95/4/6 94/4/6 96/4/6
f 95/3/6 96/3/6 97/3/6
f 97/3/6 96/3/6 98/3/6
f 97/4/6 98/4/6 99/4/6
f 99/4/6 98/4/6 100/4/6
f 99/1/6 100/1/6 101/1/6
f 101/1/6 100/1/6 102/1/6
f 101/4/6 102/4/6 103/4/6
f 103/4/6 102/4/6 104/4/6
f 103/3/6 104/3/6 105/3/6
f 105/3/6 104/3/6 106/3/6
f 105/4/6 106/4/6 107/4/6
f 107/4/6 106/4/6 108/4/6
f 108/4/6 106/4/6 109/4/6
f 109/4/6 106/4/6 110/4/6
f 110/4/6 106/4/6 111/4/6
f 111/4/6 106/4/6 112/4/6
f 112/4/6 106/4/6 113/4/6
f 113/4/6 106/4/6 114/4/6
f 108/4/6 109/4/6 115/4/6
f 109/3/6 110/3/6 115/3/6
f 110/4/6 111/4/6 116/4/6
f 115/3/6 110/3/6 116/3/6
f 107/3/6 108/3/6 117/3/6
f 108/4/6 115/4/6 118/4/6
f 117/3/6 108/3/6 118/3/6
f 115/4/6 116/4/6 118/4/6
f 116/4/6 111/4/6 119/4/6
f 118/4/6 116/4/6 119/4/6
f 111/3/6 112/3/6 119/3/6
f 112/4/6 113/4/6 120/4/6
f 119/3/6 112/3/6 120/3/6
f 113/3/6 114/3/6 121/3/6
f 120/4/6 113/4/6 121/4/6
f 121/3/6 114/3/6 122/3/6
f 117/4/6 118/4/6 123/4/6
f 119/4/6 120/4/6 123/4/6
f 121/4/6 122/4/6 123/4/6
f 120/4/6 121/4/6 123/4/6
f 118/4/6 119/4/6 123/4/6
f 123/4/6 122/4/6 124/4/6
f 123/3/6 124/3/6 125/3/6
f 125/3/6 124/3/6 126/3/6
f 125/4/6 126/4/6 127/4/6
f 127/4/6 126/4/6 128/4/6
