# MagicaVoxel @ Ephtracy

# group
o 

# material
mtllib flag.mtl
usemtl palette

# normals
vn -1 0 0
vn 1 0 0
vn 0 0 1
vn 0 0 -1
vn 0 -1 0
vn 0 1 0

# texcoords
vt 0.0644531 0.5
vt 0.958984 0.5
vt 0.994141 0.5

# verts
v -0.1 0 0.1
v -0.1 0 -1.49012e-08
v -0.1 1 0.1
v -0.1 1 -1.49012e-08
v 1.49012e-08 0 0.1
v 1.49012e-08 0 -1.49012e-08
v 1.49012e-08 0.6 0.1
v 1.49012e-08 0.6 -1.49012e-08
v 0.5 0.6 0.1
v 0.5 0.6 -1.49012e-08
v 0.5 0.7 0.1
v 0.5 0.7 -1.49012e-08
v 0.5 0.8 0.1
v 0.5 0.8 -1.49012e-08
v 0.5 0.9 0.1
v 0.5 0.9 -1.49012e-08
v 0.5 1 0.1
v 0.5 1 -1.49012e-08
v -0.1 0 0.1
v -0.1 1 0.1
v 1.49012e-08 0 0.1
v 1.49012e-08 0.6 0.1
v 1.49012e-08 0.7 0.1
v 1.49012e-08 0.8 0.1
v 1.49012e-08 0.9 0.1
v 1.49012e-08 1 0.1
v 0.1 0.6 0.1
v 0.1 0.7 0.1
v 0.1 0.8 0.1
v 0.1 0.9 0.1
v 0.1 1 0.1
v 0.2 0.6 0.1
v 0.2 0.7 0.1
v 0.2 0.8 0.1
v 0.2 0.9 0.1
v 0.2 1 0.1
v 0.3 0.6 0.1
v 0.3 0.7 0.1
v 0.3 0.8 0.1
v 0.3 0.9 0.1
v 0.3 1 0.1
v 0.4 0.6 0.1
v 0.4 0.7 0.1
v 0.4 0.8 0.1
v 0.4 0.9 0.1
v 0.4 1 0.1
v 0.5 0.6 0.1
v 0.5 0.7 0.1
v 0.5 0.8 0.1
v 0.5 0.9 0.1
v 0.5 1 0.1
v -0.1 0 -1.49012e-08
v -0.1 1 -1.49012e-08
v 1.49012e-08 0 -1.49012e-08
v 1.49012e-08 0.6 -1.49012e-08
v 1.49012e-08 0.7 -1.49012e-08
v 1.49012e-08 0.8 -1.49012e-08
v 1.49012e-08 0.9 -1.49012e-08
v 1.49012e-08 1 -1.49012e-08
v 0.1 0.6 -1.49012e-08
v 0.1 0.7 -1.49012e-08
v 0.1 0.8 -1.49012e-08
v 0.1 0.9 -1.49012e-08
v 0.1 1 -1.49012e-08
v 0.2 0.6 -1.49012e-08
v 0.2 0.7 -1.49012e-08
v 0.2 0.8 -1.49012e-08
v 0.2 0.9 -1.49012e-08
v 0.2 1 -1.49012e-08
v 0.3 0.6 -1.49012e-08
v 0.3 0.7 -1.49012e-08
v 0.3 0.8 -1.49012e-08
v 0.3 0.9 -1.49012e-08
v 0.3 1 -1.49012e-08
v 0.4 0.6 -1.49012e-08
v 0.4 0.7 -1.49012e-08
v 0.4 0.8 -1.49012e-08
v 0.4 0.9 -1.49012e-08
v 0.4 1 -1.49012e-08
v 0.5 0.6 -1.49012e-08
v 0.5 0.7 -1.49012e-08
v 0.5 0.8 -1.49012e-08
v 0.5 0.9 -1.49012e-08
v 0.5 1 -1.49012e-08
v -0.1 0 0.1
v 1.49012e-08 0 0.1
v -0.1 0 -1.49012e-08
v 1.49012e-08 0 -1.49012e-08
v 1.49012e-08 0.6 0.1
v 0.1 0.6 0.1
v 0.2 0.6 0.1
v 0.3 0.6 0.1
v 0.4 0.6 0.1
v 0.5 0.6 0.1
v 1.49012e-08 0.6 -1.49012e-08
v 0.1 0.6 -1.49012e-08
v 0.2 0.6 -1.49012e-08
v 0.3 0.6 -1.49012e-08
v 0.4 0.6 -1.49012e-08
v 0.5 0.6 -1.49012e-08
v -0.1 1 0.1
v 1.49012e-08 1 0.1
v 0.1 1 0.1
v 0.2 1 0.1
v 0.3 1 0.1
v 0.4 1 0.1
v 0.5 1 0.1
v -0.1 1 -1.49012e-08
v 1.49012e-08 1 -1.49012e-08
v 0.1 1 -1.49012e-08
v 0.2 1 -1.49012e-08
v 0.3 1 -1.49012e-08
v 0.4 1 -1.49012e-08
v 0.5 1 -1.49012e-08

# faces
f 3/1/1 2/1/1 1/1/1
f 4/1/1 2/1/1 3/1/1
f 5/1/2 6/1/2 7/1/2
f 7/1/2 6/1/2 8/1/2
f 9/3/2 10/3/2 11/3/2
f 11/3/2 10/3/2 12/3/2
f 11/2/2 12/2/2 13/2/2
f 13/2/2 12/2/2 14/2/2
f 13/3/2 14/3/2 15/3/2
f 15/3/2 14/3/2 16/3/2
f 15/2/2 16/2/2 17/2/2
f 17/2/2 16/2/2 18/2/2
f 21/1/3 20/1/3 19/1/3
f 22/1/3 20/1/3 21/1/3
f 23/1/3 20/1/3 22/1/3
f 24/1/3 20/1/3 23/1/3
f 25/1/3 20/1/3 24/1/3
f 26/1/3 20/1/3 25/1/3
f 27/3/3 23/3/3 22/3/3
f 28/2/3 24/2/3 23/2/3
f 28/3/3 23/3/3 27/3/3
f 29/3/3 25/3/3 24/3/3
f 29/2/3 24/2/3 28/2/3
f 30/2/3 26/2/3 25/2/3
f 30/3/3 25/3/3 29/3/3
f 31/2/3 26/2/3 30/2/3
f 32/2/3 28/2/3 27/2/3
f 33/3/3 29/3/3 28/3/3
f 33/2/3 28/2/3 32/2/3
f 34/2/3 30/2/3 29/2/3
f 34/3/3 29/3/3 33/3/3
f 35/3/3 31/3/3 30/3/3
f 35/2/3 30/2/3 34/2/3
f 36/3/3 31/3/3 35/3/3
f 37/3/3 33/3/3 32/3/3
f 38/2/3 34/2/3 33/2/3
f 38/3/3 33/3/3 37/3/3
f 39/3/3 35/3/3 34/3/3
f 39/2/3 34/2/3 38/2/3
f 40/2/3 36/2/3 35/2/3
f 40/3/3 35/3/3 39/3/3
f 41/2/3 36/2/3 40/2/3
f 42/2/3 38/2/3 37/2/3
f 43/3/3 39/3/3 38/3/3
f 43/2/3 38/2/3 42/2/3
f 44/2/3 40/2/3 39/2/3
f 44/3/3 39/3/3 43/3/3
f 45/3/3 41/3/3 40/3/3
f 45/2/3 40/2/3 44/2/3
f 46/3/3 41/3/3 45/3/3
f 47/3/3 43/3/3 42/3/3
f 48/2/3 44/2/3 43/2/3
f 48/3/3 43/3/3 47/3/3
f 49/3/3 45/3/3 44/3/3
f 49/2/3 44/2/3 48/2/3
f 50/2/3 46/2/3 45/2/3
f 50/3/3 45/3/3 49/3/3
f 51/2/3 46/2/3 50/2/3
f 52/1/4 53/1/4 54/1/4
f 54/1/4 53/1/4 55/1/4
f 55/1/4 53/1/4 56/1/4
f 56/1/4 53/1/4 57/1/4
f 57/1/4 53/1/4 58/1/4
f 58/1/4 53/1/4 59/1/4
f 55/3/4 56/3/4 60/3/4
f 56/2/4 57/2/4 61/2/4
f 60/3/4 56/3/4 61/3/4
f 57/3/4 58/3/4 62/3/4
f 61/2/4 57/2/4 62/2/4
f 58/2/4 59/2/4 63/2/4
f 62/3/4 58/3/4 63/3/4
f 63/2/4 59/2/4 64/2/4
f 60/2/4 61/2/4 65/2/4
f 61/3/4 62/3/4 66/3/4
f 65/2/4 61/2/4 66/2/4
f 62/2/4 63/2/4 67/2/4
f 66/3/4 62/3/4 67/3/4
f 63/3/4 64/3/4 68/3/4
f 67/2/4 63/2/4 68/2/4
f 68/3/4 64/3/4 69/3/4
f 65/3/4 66/3/4 70/3/4
f 66/2/4 67/2/4 71/2/4
f 70/3/4 66/3/4 71/3/4
f 67/3/4 68/3/4 72/3/4
f 71/2/4 67/2/4 72/2/4
f 68/2/4 69/2/4 73/2/4
f 72/3/4 68/3/4 73/3/4
f 73/2/4 69/2/4 74/2/4
f 70/2/4 71/2/4 75/2/4
f 71/3/4 72/3/4 76/3/4
f 75/2/4 71/2/4 76/2/4
f 72/2/4 73/2/4 77/2/4
f 76/3/4 72/3/4 77/3/4
f 73/3/4 74/3/4 78/3/4
f 77/2/4 73/2/4 78/2/4
f 78/3/4 74/3/4 79/3/4
f 75/3/4 76/3/4 80/3/4
f 76/2/4 77/2/4 81/2/4
f 80/3/4 76/3/4 81/3/4
f 77/3/4 78/3/4 82/3/4
f 81/2/4 77/2/4 82/2/4
f 78/2/4 79/2/4 83/2/4
f 82/3/4 78/3/4 83/3/4
f 83/2/4 79/2/4 84/2/4
f 87/1/5 86/1/5 85/1/5
f 88/1/5 86/1/5 87/1/5
f 95/3/5 90/3/5 89/3/5
f 96/2/5 91/2/5 90/2/5
f 96/3/5 90/3/5 95/3/5
f 97/3/5 92/3/5 91/3/5
f 97/2/5 91/2/5 96/2/5
f 98/2/5 93/2/5 92/2/5
f 98/3/5 92/3/5 97/3/5
f 99/3/5 94/3/5 93/3/5
f 99/2/5 93/2/5 98/2/5
f 100/3/5 94/3/5 99/3/5
f 101/1/6 102/1/6 108/1/6
f 102/2/6 103/2/6 109/2/6
f 108/1/6 102/1/6 109/1/6
f 103/3/6 104/3/6 110/3/6
f 109/2/6 103/2/6 110/2/6
f 104/2/6 105/2/6 111/2/6
f 110/3/6 104/3/6 111/3/6
f 105/3/6 106/3/6 112/3/6
f 111/2/6 105/2/6 112/2/6
f 106/2/6 107/2/6 113/2/6
f 112/3/6 106/3/6 113/3/6
f 113/2/6 107/2/6 114/2/6
